<?xml version="1.0" encoding="utf-8"?>
<!-- Generator: Adobe Illustrator 27.1.0, SVG Export Plug-In . SVG Version: 6.00 Build 0)  -->
<svg version="1.1" id="Logo" xmlns="http://www.w3.org/2000/svg" xmlns:xlink="http://www.w3.org/1999/xlink" x="0px" y="0px"
	 viewBox="0 0 618 211.9" style="enable-background:new 0 0 618 211.9;" xml:space="preserve">
<style type="text/css">
	.st0{fill:#A7A9AC;}
	.st1{fill:#72A643;}
	.st2{fill:#D1CAA5;}
	.st3{fill:url(#SVGID_1_);}
</style>
<g>
	<g>
		<g>
			<path class="st0" d="M245.2,158.8v-18.8h8.1c2.1,0,3.7,0.4,4.8,1.3c1.1,0.8,1.7,2,1.7,3.6c0,1-0.3,1.9-0.7,2.6
				c-0.5,0.7-1.1,1.2-2,1.6c-0.8,0.3-1.7,0.5-2.7,0.5l0.5-0.7c1.2,0,2.2,0.2,3.1,0.5c0.9,0.3,1.5,0.9,2,1.6c0.5,0.7,0.7,1.6,0.7,2.7
				c0,1.6-0.6,2.8-1.7,3.7c-1.1,0.9-3,1.3-5.3,1.3H245.2z M247.2,157.1h6.6c1.6,0,2.9-0.3,3.8-0.9c0.9-0.5,1.3-1.5,1.3-2.7
				c0-1.2-0.5-2.1-1.3-2.7c-0.9-0.5-2.2-0.9-3.8-0.9h-6.9v-1.6h6.2c1.5,0,2.7-0.3,3.5-0.9s1.3-1.4,1.3-2.6s-0.4-2-1.3-2.6
				c-0.8-0.5-2-0.9-3.5-0.9h-6L247.2,157.1L247.2,157.1z"/>
			<path class="st0" d="M273.4,158.8v-18.8h2v18.8H273.4z"/>
			<path class="st0" d="M297.8,159c-1.4,0-2.7-0.3-3.9-0.7s-2.2-1.1-3.2-2c-0.9-0.9-1.5-1.9-2.1-3c-0.5-1.1-0.7-2.4-0.7-3.8
				c0-1.3,0.3-2.6,0.7-3.8s1.2-2.2,2.1-3s2-1.5,3.1-2c1.2-0.5,2.5-0.7,4-0.7c1.4,0,2.7,0.3,3.9,0.7c1.2,0.5,2.2,1.1,3.1,2
				c0.9,0.9,1.5,1.9,2.1,3c0.5,1.1,0.7,2.4,0.7,3.8c0,1.3-0.3,2.6-0.7,3.8c-0.5,1.2-1.2,2.2-2.1,3c-0.9,0.9-2,1.5-3.1,2
				C300.6,158.7,299.2,159,297.8,159z M297.8,157.2c1.1,0,2.2-0.2,3.1-0.6c0.9-0.4,1.8-0.9,2.5-1.6c0.7-0.7,1.3-1.5,1.7-2.5
				c0.4-0.9,0.6-2,0.6-3.1s-0.2-2.2-0.6-3.1c-0.4-0.9-0.9-1.7-1.7-2.5c-0.7-0.7-1.5-1.3-2.5-1.6c-0.9-0.4-2-0.6-3.1-0.6
				c-1.1,0-2.2,0.2-3.2,0.6s-1.8,0.9-2.5,1.6c-0.7,0.7-1.3,1.5-1.7,2.5c-0.4,0.9-0.6,2-0.6,3.1c0,1.1,0.2,2.2,0.6,3.1
				c0.4,0.9,0.9,1.7,1.7,2.5c0.7,0.7,1.5,1.3,2.5,1.6C295.6,157,296.7,157.2,297.8,157.2z"/>
			<path class="st0" d="M335.2,158.8v-18.8h7c1.6,0,3,0.3,4.1,0.7c1.1,0.5,2,1.2,2.6,2.2c0.6,0.9,0.9,2.1,0.9,3.5
				c0,1.3-0.3,2.5-0.9,3.4c-0.6,0.9-1.5,1.7-2.6,2.2c-1.1,0.5-2.5,0.8-4.1,0.8h-5.9l0.9-0.9v6.9L335.2,158.8L335.2,158.8z
				 M337.2,152.1l-0.9-0.9h5.9c1.9,0,3.3-0.4,4.3-1.2c0.9-0.8,1.5-2,1.5-3.4s-0.5-2.7-1.5-3.5c-0.9-0.8-2.4-1.2-4.3-1.2h-5.9
				l0.9-0.9V152.1z"/>
			<path class="st0" d="M362.2,158.8v-18.8h7c1.6,0,3,0.3,4.1,0.7c1.1,0.5,2,1.2,2.6,2.2c0.6,0.9,0.9,2.1,0.9,3.5
				c0,1.3-0.3,2.5-0.9,3.4c-0.6,0.9-1.5,1.7-2.6,2.2c-1.1,0.5-2.5,0.7-4.1,0.7h-5.9l0.9-0.9v6.9L362.2,158.8L362.2,158.8z
				 M364.2,152.1l-0.9-0.9h5.9c1.9,0,3.3-0.4,4.3-1.2c0.9-0.8,1.5-2,1.5-3.4s-0.5-2.7-1.5-3.5c-0.9-0.8-2.4-1.2-4.3-1.2h-5.9
				l0.9-0.9V152.1z M375,158.8l-4.8-6.8h2.2l4.8,6.8H375z"/>
			<path class="st0" d="M397.9,159c-1.4,0-2.7-0.3-3.9-0.7c-1.2-0.5-2.2-1.1-3.2-2c-0.9-0.9-1.5-1.9-2.1-3c-0.5-1.1-0.7-2.4-0.7-3.8
				c0-1.3,0.3-2.6,0.7-3.8c0.5-1.1,1.2-2.2,2.1-3s2-1.5,3.1-2c1.2-0.5,2.5-0.7,4-0.7c1.4,0,2.7,0.3,3.9,0.7s2.2,1.1,3.1,2
				s1.5,1.9,2.1,3c0.5,1.1,0.7,2.4,0.7,3.8c0,1.3-0.3,2.6-0.7,3.8c-0.5,1.2-1.2,2.2-2.1,3c-0.9,0.9-2,1.5-3.1,2
				C400.6,158.7,399.3,159,397.9,159z M397.9,157.2c1.1,0,2.2-0.2,3.1-0.6c0.9-0.4,1.8-0.9,2.5-1.6c0.7-0.7,1.3-1.5,1.7-2.5
				c0.4-0.9,0.6-2,0.6-3.1s-0.2-2.2-0.6-3.1c-0.4-0.9-0.9-1.7-1.7-2.5c-0.7-0.7-1.5-1.3-2.5-1.6c-0.9-0.4-2-0.6-3.1-0.6
				s-2.2,0.2-3.2,0.6s-1.8,0.9-2.5,1.6c-0.7,0.7-1.3,1.5-1.7,2.5c-0.4,0.9-0.6,2-0.6,3.1c0,1.1,0.2,2.2,0.6,3.1
				c0.4,0.9,0.9,1.7,1.7,2.5c0.7,0.7,1.5,1.3,2.5,1.6C395.7,157,396.7,157.2,397.9,157.2z"/>
			<path class="st0" d="M420.2,158.8v-18.8h7.6c2,0,3.8,0.4,5.2,1.2c1.5,0.8,2.7,1.9,3.5,3.3c0.8,1.4,1.3,3,1.3,4.9
				c0,1.8-0.4,3.5-1.3,4.9c-0.8,1.4-2,2.5-3.5,3.3c-1.5,0.8-3.3,1.2-5.2,1.2L420.2,158.8L420.2,158.8z M422.2,157.1h5.5
				c1.7,0,3.1-0.3,4.3-1c1.2-0.7,2.2-1.5,2.8-2.7s1-2.5,1-4c0-1.5-0.3-2.8-1-4s-1.6-2-2.8-2.7s-2.7-1-4.3-1h-5.5V157.1z"/>
			<path class="st0" d="M458,159c-2.4,0-4.3-0.7-5.7-2.1c-1.3-1.3-2.1-3.4-2.1-6.1V140h2v10.7c0,2.2,0.5,3.8,1.5,4.9
				s2.4,1.6,4.2,1.6s3.2-0.5,4.2-1.6c1-1.1,1.5-2.7,1.5-4.9V140h2v10.8c0,2.7-0.7,4.7-2,6.1C462.2,158.3,460.3,159,458,159z"/>
			<path class="st0" d="M487.8,159c-1.4,0-2.7-0.3-3.9-0.7c-1.2-0.5-2.2-1.1-3.1-2c-0.9-0.9-1.5-1.9-2-3c-0.5-1.1-0.7-2.4-0.7-3.8
				c0-1.3,0.3-2.6,0.7-3.8c0.5-1.1,1.2-2.2,2.1-3c0.9-0.9,2-1.5,3.1-2c1.2-0.5,2.5-0.7,3.9-0.7c1.3,0,2.6,0.2,3.8,0.7
				c1.2,0.5,2.2,1.1,3,2l-1.3,1.3c-0.7-0.8-1.6-1.3-2.6-1.7c-0.9-0.3-2-0.5-3-0.5c-1.1,0-2.2,0.2-3.2,0.6s-1.8,0.9-2.5,1.6
				c-0.7,0.7-1.3,1.5-1.7,2.5s-0.6,2-0.6,3.1s0.2,2.2,0.6,3.1c0.4,0.9,0.9,1.7,1.7,2.5c0.7,0.7,1.5,1.3,2.5,1.6
				c0.9,0.4,2,0.6,3.2,0.6c1.1,0,2.1-0.2,3-0.5c0.9-0.3,1.7-0.9,2.6-1.7l1.3,1.3c-0.8,0.9-1.8,1.6-3,2.1
				C490.5,158.6,489.2,159,487.8,159z"/>
			<path class="st0" d="M510.3,158.8v-17h-6.6v-1.7H519v1.7h-6.6v17H510.3z"/>
			<path class="st0" d="M535,159c-1.4,0-2.8-0.2-4-0.7c-1.3-0.5-2.3-1-3-1.7l0.8-1.5c0.7,0.7,1.5,1.2,2.7,1.6
				c1.1,0.5,2.3,0.7,3.5,0.7s2.2-0.1,2.9-0.5c0.7-0.3,1.3-0.7,1.6-1.2c0.3-0.5,0.5-1.1,0.5-1.7c0-0.7-0.2-1.3-0.6-1.7
				c-0.4-0.5-0.9-0.8-1.7-1.1c-0.7-0.3-1.4-0.5-2.2-0.7c-0.8-0.2-1.6-0.4-2.5-0.6c-0.8-0.2-1.5-0.5-2.3-0.9
				c-0.7-0.4-1.2-0.9-1.7-1.5c-0.4-0.6-0.6-1.4-0.6-2.4c0-0.9,0.3-1.8,0.7-2.6c0.5-0.8,1.3-1.4,2.3-1.9c1-0.5,2.4-0.7,3.9-0.7
				c1.1,0,2.1,0.1,3.2,0.5c1,0.3,2,0.7,2.7,1.2l-0.7,1.6c-0.8-0.5-1.7-0.9-2.6-1.2c-0.9-0.3-1.7-0.4-2.6-0.4c-1.1,0-2.1,0.1-2.8,0.5
				c-0.7,0.3-1.3,0.7-1.6,1.2c-0.3,0.5-0.5,1.1-0.5,1.7c0,0.7,0.2,1.3,0.6,1.7c0.4,0.5,0.9,0.8,1.7,1.1c0.7,0.3,1.4,0.5,2.3,0.7
				c0.8,0.2,1.6,0.4,2.4,0.7c0.8,0.3,1.5,0.5,2.2,0.9c0.7,0.3,1.2,0.9,1.7,1.5c0.4,0.6,0.6,1.4,0.6,2.4c0,0.9-0.3,1.7-0.7,2.6
				c-0.5,0.8-1.3,1.4-2.3,1.9C537.9,158.7,536.6,159,535,159z"/>
		</g>
		<g>
			<path class="st1" d="M240.4,67.2h-0.2c-0.1-1.1-0.5-2.2-1.3-3c-0.8-0.8-1.8-1.2-3-1.2c-0.1,0-0.2,0-0.4,0c-0.2,0-0.4,0-0.5,0
				v-0.7h5.3L240.4,67.2L240.4,67.2z M240.4,104.2v4.8h-5.3v-0.7c0.1,0,0.3,0,0.5,0c0.2,0,0.3,0,0.4,0c1.1,0,2.2-0.4,3-1.2
				c0.8-0.8,1.3-1.8,1.3-3C240.2,104.2,240.4,104.2,240.4,104.2z M250.2,62.4v46.7h-10V62.4H250.2z M254.4,62.4
				c3.2,0,6.1,0.4,8.7,1.1c2.6,0.8,4.6,2,6.1,3.7c1.5,1.7,2.2,3.8,2.2,6.6c0,2-0.4,3.8-1.1,5.2c-0.8,1.4-1.8,2.5-3,3.3
				c-1.3,0.8-2.6,1.3-4,1.4c2.2,0.2,4.2,0.8,6.1,1.9c1.8,1.1,3.2,2.5,4.2,4.3c1,1.7,1.5,3.9,1.5,6.3c0,2.8-0.8,5.2-2.4,7.2
				c-1.5,2-3.8,3.4-6.6,4.4c-2.8,1-6.1,1.5-9.8,1.5h-6.6c0.1-1,0.1-2,0.1-3h3.6c2,0,3.8-0.4,5.3-1.1c1.5-0.7,2.8-2,3.6-3.6
				c0.9-1.6,1.3-3.6,1.3-6.1c0-2-0.3-3.6-0.9-5c-0.6-1.4-1.4-2.5-2.4-3.4c-1-0.9-2.2-1.5-3.5-1.9s-2.8-0.6-4.2-0.6v-0.6
				c1,0,2-0.1,3-0.5c1-0.3,1.9-0.9,2.6-1.5c0.8-0.7,1.4-1.7,1.8-2.8c0.5-1.2,0.7-2.6,0.7-4.2c0-2.3-0.3-4.1-1.1-5.4
				c-0.7-1.4-1.7-2.4-3-3c-1.3-0.6-2.8-0.9-4.5-0.9h-8.7c0-0.1-0.1-0.3-0.1-0.7c-0.1-0.5-0.3-1.1-0.5-2.1h11.5V62.4z"/>
			<path class="st1" d="M284.2,73.3H284c0-1-0.4-1.9-1.1-2.6c-0.7-0.7-1.7-1-2.8-1h-0.8V69h4.8L284.2,73.3L284.2,73.3z M284.2,104.9
				v4.2h-4.8v-0.7c0.5,0,0.8,0,0.9,0c1,0,1.9-0.3,2.7-1c0.7-0.7,1.1-1.5,1.1-2.5L284.2,104.9L284.2,104.9z M293.6,69v40.1H284V69
				H293.6z M293.5,73.3V69h4.8l-0.1,0.7c-0.5,0-0.7,0-0.7,0c-1.1,0-2,0.3-2.7,1c-0.7,0.7-1.1,1.5-1.1,2.6H293.5z M293.5,104.9h0.1
				c0.1,1,0.4,1.8,1.1,2.5c0.7,0.7,1.6,1,2.7,1c0.5,0,0.7,0,0.8,0v0.7h-4.8L293.5,104.9L293.5,104.9z"/>
			<path class="st1" d="M325.8,68.1c3.6,0,6.8,0.5,9.7,1.4c2.9,0.9,5.4,2.4,7.5,4.2c2.1,1.8,3.7,4,4.8,6.6c1.1,2.6,1.7,5.5,1.7,8.7
				s-0.5,6.1-1.7,8.7c-1.1,2.6-2.8,4.8-4.8,6.6c-2.1,1.8-4.6,3.2-7.5,4.2c-2.9,0.9-6.1,1.4-9.7,1.4c-3.5,0-6.7-0.5-9.6-1.4
				c-2.9-0.9-5.4-2.4-7.5-4.2s-3.7-4-4.8-6.6c-1.1-2.6-1.7-5.4-1.7-8.7s0.5-6.2,1.7-8.7c1.1-2.6,2.7-4.8,4.8-6.6
				c2.1-1.8,4.6-3.2,7.5-4.2C319.1,68.6,322.3,68.1,325.8,68.1z M325.8,107.4c2.7,0,5.1-0.7,7.1-2.2c2-1.5,3.6-3.6,4.6-6.3
				c1.1-2.7,1.6-5.9,1.6-9.7c0-3.8-0.5-7.1-1.6-9.8c-1.1-2.8-2.6-4.8-4.6-6.3c-2-1.5-4.4-2.2-7.1-2.2c-2.7,0-5,0.7-7,2.2
				c-2,1.5-3.6,3.6-4.6,6.3c-1.1,2.8-1.7,6-1.7,9.8c0,3.8,0.5,7,1.7,9.7s2.7,4.8,4.6,6.3C320.9,106.6,323.2,107.4,325.8,107.4z"/>
			<path class="st2" d="M359,67.2h-0.2c0-1.1-0.4-2.2-1.3-3c-0.9-0.8-1.8-1.2-3-1.2c-0.1,0-0.2,0-0.4,0s-0.3,0-0.4,0l-0.1-0.7h5.3
				L359,67.2L359,67.2z M359,104.2v4.8h-5.3v-0.7c0.1,0,0.2,0,0.4,0c0.3,0,0.4,0,0.4,0c1.1,0,2.2-0.4,3-1.2c0.8-0.8,1.3-1.8,1.3-3
				C358.7,104.2,359,104.2,359,104.2z M368.8,62.4v46.7h-10V62.4H368.8z M376,62.4c3.8,0,6.9,0.5,9.3,1.7s4.2,2.6,5.3,4.6
				c1.2,2,1.8,4.1,1.9,6.6c0.1,2.3-0.3,4.4-1.1,6.2c-0.9,1.9-2,3.4-3.5,4.6c-1.5,1.3-3.2,2.2-5,2.7c-1.9,0.5-3.8,0.7-5.9,0.4
				s-4-1.1-5.9-2.3v-0.7c1.1,0,2.1-0.1,3-0.3c0.9-0.2,1.7-0.5,2.8-1c0.9-0.5,1.9-1.3,2.7-2.3c0.9-1,1.5-2.4,2-4.1
				c0.2-0.6,0.3-1.2,0.3-2c0.1-0.7,0.1-1.4,0-2c-0.1-2.8-0.8-5.1-2.3-6.9c-1.5-1.7-3.6-2.6-6.3-2.6h-4.4c-0.2-0.9-0.5-1.9-0.7-2.8
				L376,62.4L376,62.4z M368.6,104.2h0.2c0.1,1.1,0.5,2.2,1.3,3c0.8,0.8,1.8,1.2,3,1.2c0.1,0,0.2,0,0.4,0c0.3,0,0.4,0,0.4,0v0.7
				h-5.2V104.2z"/>
			<path class="st2" d="M391,104.7c-0.5,1.2-0.4,2.2,0.2,2.8c0.6,0.7,1.3,0.9,2.1,0.9h0.5v0.7h-13.4v-0.7h0.5c0.9,0,1.8-0.3,2.8-0.8
				s1.7-1.5,2.4-2.9H391z M403.5,67.2l0.1,8l-14.5,33.6h-4.9l15.6-33.6c0.1-0.3,0.3-0.7,0.6-1.4c0.3-0.7,0.7-1.5,1-2.4
				c0.3-0.9,0.7-1.7,1-2.5c0.3-0.8,0.5-1.4,0.5-1.8H403.5z M409.3,96v2.6h-17V96H409.3z M403.5,67.2l19.8,41.5h-11.3l-12.4-29.3
				L403.5,67.2z M410.3,104.7h11c0.7,1.4,1.5,2.4,2.5,2.9s1.9,0.8,2.8,0.8h0.5v0.7h-19.6v-0.7h0.5c0.7,0,1.4-0.3,2.1-0.9
				C410.7,106.8,410.8,105.9,410.3,104.7z"/>
			<path class="st2" d="M466.5,92.3l0.7,10.1c-0.9,1.4-2,2.7-3.6,3.8s-3.4,2-5.5,2.7c-2.2,0.7-4.7,1-7.6,1c-5-0.1-9.3-0.9-12.9-2.6
				c-3.6-1.6-6.4-4-8.3-7.1c-2-3.1-2.9-6.9-2.9-11.3c0-4.4,0.9-8.1,2.9-11.2c1.9-3.1,4.6-5.4,8.3-7.1s7.9-2.5,13-2.5
				c3,0,5.9,0.3,8.5,0.9c2.6,0.6,4.8,1.3,6.5,2.2l0.1,10.6h-0.5c-1.1-4.1-2.9-7-5.2-8.6c-2.4-1.6-5.2-2.5-8.6-2.5
				c-3.2,0-5.9,0.7-8.1,2.3c-2.2,1.5-3.8,3.6-4.8,6.3c-1.1,2.7-1.6,5.9-1.6,9.6c0,3.7,0.5,6.9,1.6,9.6c1.1,2.7,2.7,4.8,4.8,6.3
				c2.1,1.5,4.6,2.3,7.5,2.4c3.2,0,5.8-0.5,7.9-1.5c2.1-1,3.7-2.6,4.9-4.7c1.2-2.2,2.1-5.1,2.6-8.7L466.5,92.3L466.5,92.3z"/>
			<path class="st2" d="M476.7,73.3h-0.1c-0.1-1-0.4-1.9-1.1-2.6c-0.7-0.7-1.6-1-2.6-1c-0.5,0-0.7,0-0.7,0V69h4.6L476.7,73.3
				L476.7,73.3z M476.7,104.9v4.2h-4.5v-0.7c0.4,0,0.6,0,0.7,0c1,0,1.9-0.3,2.6-1C476.2,106.8,476.6,105.9,476.7,104.9L476.7,104.9
				L476.7,104.9z M486.2,69v40.2h-9.6V69H486.2z M486,73.3V69h4.6v0.7c-0.1,0-0.1,0-0.3,0s-0.3,0-0.3,0c-1,0-1.9,0.3-2.6,1
				c-0.7,0.7-1.1,1.5-1.1,2.6L486,73.3L486,73.3z M486,104.9h0.2c0,1,0.3,1.8,1.1,2.5c0.7,0.7,1.5,1,2.6,1c0.1,0,0.3,0,0.7,0v0.7
				h-4.6L486,104.9L486,104.9z M509.5,69.4L492.1,90l-3.9,0.4l15.8-21H509.5z M495.3,83.9l14.9,20.7c0.9,1.3,1.7,2.2,2.7,2.8
				c0.9,0.7,2,1,3.3,1v0.6h-5.1c-0.5,0-1.2,0-2.2-0.1s-2.2-0.2-3.5-0.5c-1.3-0.3-2.6-0.8-4-1.5c-1.3-0.7-2.5-1.7-3.6-3.1
				c-0.2-0.3-0.6-0.9-1.1-1.6c-0.5-0.7-1.1-1.6-1.9-2.7c-0.7-1-1.5-2.1-2.3-3.2c-0.8-1.1-1.5-2.1-2.2-3c-0.7-0.9-1.4-2-2.2-3.2
				L495.3,83.9z M513.5,69v0.7h-0.3c-1.3,0-2.4,0.3-3.6,0.7c-1.1,0.5-2,1.1-2.8,2l-5.1-0.1c0.5-0.6,0.6-1.2,0.3-1.7
				s-0.9-0.8-1.6-0.8h-0.6V69h13.4L513.5,69L513.5,69z"/>
			<path class="st2" d="M551.8,68.1v0.5l-23.2,40.4h-11.5v-0.5l22-36.9H518V69h27c0.9,0,1.7,0,2.7-0.1c0.9-0.1,1.8-0.1,2.6-0.3
				C551,68.4,551.5,68.3,551.8,68.1z M518,67.9c0.3,0.1,0.9,0.3,1.7,0.4c0.8,0.1,1.7,0.3,2.8,0.4c1,0.1,2,0.1,2.8,0.1l-7.3,0.7
				L518,67.9L518,67.9z M518,71.4h6.8v0.2c-1.9,0-3.4,0.5-4.5,1.7c-1.1,1.1-1.6,2.7-1.6,4.6v0.5H518L518,71.4L518,71.4z
				 M551.1,106.5l-0.5,2.6h-29.2v-2.6H551.1z M554.3,96.8l-2.9,12.3h-12.1l2.3-2.6c2.1,0,3.9-0.4,5.4-1.1c1.5-0.8,2.9-1.9,4-3.4
				c1.1-1.4,2-3.2,2.6-5.2C553.5,96.8,554.3,96.8,554.3,96.8z"/>
		</g>
	</g>
	<g>
		<path class="st2" d="M143.6,37.3c-34.5,0-63.6,21.7-72.8,51.3c1.6,0.4,3.6,0.9,5.8,1.1c8.3-24.1,32.3-41.6,60.5-41.6
			c35.2,0,63.7,27,63.7,60.4s-28.5,60.4-63.7,60.4c-33.2,0-60.5-24.1-63.4-54.8c-2.2-2-4.2-4.4-5.9-7.1c0,0.5,0,1,0,1.5
			c0,39.3,34,71.2,75.9,71.2s75.9-31.9,75.9-71.2S185.5,37.3,143.6,37.3z"/>
		<path class="st1" d="M180.5,119.3c-2.9-11-13.8-17.8-24.9-21.9c0,0,17-9.3,17-20.5c0-11-13.6-11.3-21.4-11.3h-48.8V69
			c4.8,0,8.6,3.9,8.6,8.6v11.5c6.1,1,11.3,3.2,14.6,6.1V73.8c2.4-0.5,7.8-1.7,14.4-2c5.6-0.2,16.7-0.1,16.7,7.7c0,3.7-3.8,8-8,11.8
			c-8.6,7.7-19.1,11-22.9,12.2c-8.6,2.6-16.3,3.6-22.2,3.6c-11.2,0-18-3-19.9-4l0.1-0.2c5.2,0.9,10,1.2,14.4,1.2c17,0,27-5.1,27-5.1
			c-3.6-4.6-12.4-7.5-22.7-7.5c-3,0-6.2,0.3-9.4,0.8c-3.6,0.5-6.9,0.8-10,0.8c-12,0-19.1-3.9-19.1-3.9s4.2,29.7,32.6,31.2
			c0.9,0.1,1.8,0.1,2.8,0.1c11.8,0,19.5-4.2,26.6-8.6c1.2-0.7,8.5-5.6,12.3-6.8c4.2-1.3,11.1-2.6,17.4,1.1c4.2,2.5,7.9,6.7,9.7,11.6
			c0.8,2.2,1.3,4.6,1.3,7.1c0,6.9-3.6,13.7-9.3,17.7c-12.6,8.6-31.4,2.9-31.5,2.8v-30c-4.4,2.6-9.1,5-14.6,6.5v31.1h24.8
			c10.1,0,20.9,0,30.6-3.6C177.5,145.4,184.2,133.5,180.5,119.3z"/>
		
			<linearGradient id="SVGID_1_" gradientUnits="userSpaceOnUse" x1="63.9261" y1="108.4347" x2="135.7626" y2="108.4347" gradientTransform="matrix(1 0 0 -1 0 213.2756)">
			<stop  offset="0" style="stop-color:#3A722F"/>
			<stop  offset="0.95" style="stop-color:#72A643"/>
		</linearGradient>
		<path class="st3" d="M135.8,106.1c-0.5-1.9-1.1-3.8-1.5-5.8c-3.7,1.6-6.9,2.6-8.6,3.1c-8.6,2.6-16.3,3.6-22.2,3.6
			c-11.2,0-18-3-19.9-4l0.1-0.2c5.2,0.9,10,1.2,14.4,1.2c17,0,27-5.1,27-5.1c-3.6-4.6-12.4-7.5-22.7-7.5c-3,0-6.2,0.3-9.4,0.8
			c-3.5,0.6-6.9,0.9-9.9,0.9c-12,0-19.1-3.9-19.1-3.9s4.2,29.7,32.6,31.2c0.9,0.1,1.8,0.1,2.8,0.1c11.8,0,19.5-4.2,26.6-8.6
			C126.8,111.3,131.9,107.9,135.8,106.1z"/>
	</g>
	<rect x="235.9" y="122" class="st2" width="316.8" height="1.5"/>
</g>
</svg>
