<?xml version="1.0" encoding="utf-8"?>
<!-- Generator: Adobe Illustrator 27.1.0, SVG Export Plug-In . SVG Version: 6.00 Build 0)  -->
<svg version="1.1" id="Layer_1" xmlns="http://www.w3.org/2000/svg" xmlns:xlink="http://www.w3.org/1999/xlink" x="0px" y="0px"
	 viewBox="0 0 237.5 260.1" style="enable-background:new 0 0 237.5 260.1;" xml:space="preserve">
<style type="text/css">
	.st0{fill:#18A6DF;}
	.st1{fill:#54B948;}
	.st2{fill:#EE3541;}
	.st3{fill:#FFFFFF;}
</style>
<g>
	<path class="st0" d="M167.1,56.4L91.9,89.7c-5.1,2.3-8.5,7.4-8.5,13v2.9l44.4-17.7c9.3-3.6,19.4,3.3,19.4,13.4v6.7l2.5-0.5
		c10.5-0.7,19.1,5.8,19.3,16.7v74.7c9.2,2.9,18.2-4,18.2-13.7V69.4C187.1,59.1,176.5,52.2,167.1,56.4"/>
	<path class="st1" d="M146.9,111l-0.1,0.1v83.1c0,0.6-0.1,1.3-0.1,1.9l19.5,6.3c0.1,0,0.1,0,0.1,0.1v-77.9
		C166.2,114.4,156.2,107.5,146.9,111"/>
	<path class="st2" d="M71.2,134.9l7-2.7l0.2-26.7l-18.8,7.2c-5.5,2.1-9.2,7.4-9.2,13.4v44c0,6.2,4,11.8,10,13.7l1.3,0.4l0.2-36.1
		C62,142.2,65.7,137,71.2,134.9"/>
	<path class="st2" d="M144.1,107.6v-6.3c0-10-10-16.9-19.4-13.4l-46.3,17.7l-0.2,26.7L144.1,107.6z"/>
	<path class="st2" d="M144,192.5l-56.1-18.1C82,172.5,78,167,78,160.7l0.2-28.4l-7,2.7c-5.5,2.1-9.2,7.4-9.3,13.3l-0.2,36.1l63.8,20
		C134.1,206.9,142.8,201.1,144,192.5"/>
	<path class="st2" d="M78,160.7c-0.1,6.2,4,11.8,9.9,13.7l56.1,18.1c0.1-0.6,0.1-1.3,0.1-1.9v-83l-65.9,24.7L78,160.7z"/>
	<path class="st3" d="M111.2,117.3v14.1h-3.1c-1,0-2.1,0.1-3.1,0.2v-8.1H89.4V140H72.9v15.6h16c1,0,2.1-0.1,3.1-0.2
		c0.6-0.1,1.2-0.2,1.8-0.3c4.6-0.9,8.6-3.1,11.9-6.1c0.5-0.5,1-1,1.5-1.5c1.2-1.3,2.2-2.7,3.1-4.1c-1,3.9-3.1,7.5-5.8,10.4
		c-0.5,0.5-1,1-1.5,1.5c-3.3,3.1-7.4,5.2-11.9,6.1c-0.6,0.1-1.2,0.2-1.8,0.3c-1,0.1-2.1,0.2-3.1,0.2H66.6v-28.1h16.5v-16.5
		C83.1,117.3,111.2,117.3,111.2,117.3z"/>
	<path class="st3" d="M83.2,178.4v-14.1h3.1c1,0,2.1-0.1,3.1-0.2v8.1H105v-16.5h16.5V140h-16.1c-1,0-2.1,0.1-3.1,0.2
		c-0.6,0.1-1.2,0.2-1.8,0.3c-4.6,0.9-8.6,3.1-11.9,6.1c-0.5,0.5-1,1-1.5,1.5c-1.2,1.3-2.2,2.7-3.1,4.1c1-3.9,3.1-7.5,5.8-10.4
		c0.5-0.5,1-1,1.5-1.5c3.3-3.1,7.4-5.2,11.9-6.1c0.6-0.1,1.2-0.2,1.8-0.3c1-0.1,2.1-0.2,3.1-0.2h19.6v28.1h-16.5v16.5H83.2z"/>
</g>
</svg>
