<?xml version="1.0" encoding="utf-8"?>
<!-- Generator: Adobe Illustrator 26.1.0, SVG Export Plug-In . SVG Version: 6.00 Build 0)  -->
<svg version="1.1" id="Layer_1" xmlns="http://www.w3.org/2000/svg" xmlns:xlink="http://www.w3.org/1999/xlink" x="0px" y="0px"
	 viewBox="0 0 1413.4 385" style="enable-background:new 0 0 1413.4 385;" xml:space="preserve">
<style type="text/css">
	.st0{fill:#ED3665;}
	.st1{fill:#FFFFFF;}
	.st2{fill:#00489A;}
</style>
<path id="XMLID_00000128485551620980927150000009070010169318001058_" class="st0" d="M82.4,50.1l201.7,0
	c29.1,0,52.6,23.6,52.6,52.6l0,201.7c0,29.1-23.6,52.6-52.6,52.6H82.4c-29.1,0-52.6-23.6-52.6-52.6l0-201.7
	C29.8,73.7,53.3,50.1,82.4,50.1z"/>
<path class="st1" d="M269.6,102.1L76.5,152.8l2.6,19l0.2,1.4l2.8,20.4l79.4,28.9l28.8,82.5h18.6h1.9h19.2l52-190.4L269.6,102.1z
	 M210.2,300.2l-28.9-82.9l54.4-54.1l-14.4-14.5L167,202.8l0,0l-83.5-30.4c-0.1,0-0.3-0.1-0.4-0.1l174.7-45.9L210.2,300.2z"/>
<g>
	<polygon class="st2" points="479.3,279.3 415.7,129.8 453.3,129.8 473.8,179 498.6,246.8 523.1,179.6 543.6,129.8 581.2,129.8 
		517.9,279.3 	"/>
	<path class="st2" d="M670.1,282.7c-50.5,0-81.8-30.4-81.8-79.4c0-46.5,31.8-77.8,79.1-77.8c24.5,0,44.3,7.5,57.3,21.8
		c14.2,15.6,20.4,39.4,17.8,69H623.8l0.2,1.7c2.7,20.7,20.6,33.6,46.7,33.6c12.7,0,31.1-4.7,40.6-13.5l21.9,21.6
		C718.7,273.9,694.6,282.7,670.1,282.7z M668.6,155.7c-22.1,0-38.5,11.4-43.9,30.6l-0.5,1.9h85.5l-0.2-1.7
		C707,167,692.1,155.7,668.6,155.7z"/>
	<path class="st2" d="M877.9,278.7v-77.8c0-25.6-15-42.1-38.1-42.1c-22.9,0-40.3,18.9-40.3,43.9v76h-34.2V129.8H796l2.7,22.3
		l2.2-2.2c15.7-15.4,30.8-22.3,48.8-22.3c37.5,0,62.8,29.3,62.8,72.9v78.1H877.9z"/>
	<path class="st2" d="M1002.8,280.6c-15.2,0-27.8-4.7-36.3-13.5c-9-9.3-13.6-22.9-13.6-40.4v-67h-28.3v-29.3h28.3V93.9l34.5-6.2
		v42.8h41.8v29.3h-42.1v67c0,14.4,7.9,23,21.2,23c5.3,0,11.6-1.5,17.2-4l9.5,29c-10,3.8-18.5,5.5-29.2,5.8
		C1004.8,280.6,1003.8,280.6,1002.8,280.6z"/>
	<path class="st2" d="M1159.4,278.3V130h34.5v148.3H1159.4z M1176.6,105.8c-9.9,0-20.6-6.4-20.6-20.4c0-14,10.7-20.4,20.6-20.4
		s20.6,6.4,20.6,20.4C1197.3,99.5,1186.6,105.8,1176.6,105.8z"/>
	<path class="st2" d="M1226.1,342.1V130.1h34.3v24.2l2.8-4c12-17.4,32.8-23.6,48.1-23.6c44.2,0,76.3,32.7,76.3,77.8
		c0,46.5-30.2,77.8-75.1,77.8c-17.2,0-39.2-5.5-49.2-20.8l-2.8-4.3v84.8H1226.1z M1308.5,160c-26.2,0-44.6,18.3-44.6,44.6
		c0,25.4,19.2,44.6,44.6,44.6c25.4,0,44.6-19.2,44.6-44.6C1353.1,178.3,1334.7,160,1308.5,160z"/>
	<path class="st2" d="M1055.4,279.6v-149h34.1v11.9l2.5-2.3c9-8.1,21.1-12.2,35.9-12.2h5.7l0.7,0.1l0.2,0v35.5l-6.9-0.4
		c-0.8,0-1.6-0.1-2.4-0.1c-9.7,0-17.8,2.8-24.9,8.4c-7.3,5.8-11,15.7-11,29.3v78.7H1055.4z"/>
</g>
</svg>
