<?xml version="1.0" encoding="utf-8"?>
<!-- Generator: Adobe Illustrator 27.1.0, SVG Export Plug-In . SVG Version: 6.00 Build 0)  -->
<svg version="1.1" id="Layer_1" xmlns="http://www.w3.org/2000/svg" xmlns:xlink="http://www.w3.org/1999/xlink" x="0px" y="0px"
	 viewBox="0 0 1019 385" style="enable-background:new 0 0 1019 385;" xml:space="preserve">
<style type="text/css">
	.st0{fill:#ED3665;}
	.st1{fill:#FFFFFF;}
	.st2{fill:#00489A;}
</style>
<path id="XMLID_00000128485551620980927150000009070010169318001058_" class="st0" d="M68.8,95.3h142.3c20.5,0,37.1,16.7,37.1,37.1
	v142.3c0,20.5-16.7,37.1-37.1,37.1H68.8c-20.5,0-37.1-16.7-37.1-37.1V132.4C31.7,111.9,48.2,95.3,68.8,95.3z"/>
<path class="st1" d="M200.9,132L64.6,167.7l1.8,13.4l0.1,1l2,14.4l56,20.4l20.3,58.2H158h1.3h13.5l36.7-134.3L200.9,132z M159,271.7
	l-20.4-58.5l38.4-38.2l-10.2-10.2L128.5,203l0,0l-58.9-21.5c-0.1,0-0.2-0.1-0.3-0.1l123.3-32.4L159,271.7z"/>
<g>
	<polygon class="st2" points="348.8,257 304,151.5 330.5,151.5 345,186.2 362.5,234.1 379.7,186.7 394.2,151.5 420.7,151.5 
		376.1,257 	"/>
	<path class="st2" d="M483.5,259.4c-35.6,0-57.7-21.5-57.7-56c0-32.8,22.4-54.9,55.8-54.9c17.3,0,31.3,5.3,40.4,15.4
		c10,11,14.4,27.8,12.6,48.7h-83.8l0.1,1.2c1.9,14.6,14.5,23.7,33,23.7c9,0,21.9-3.3,28.6-9.5l15.5,15.2
		C517.8,253.2,500.8,259.4,483.5,259.4z M482.4,169.8c-15.6,0-27.2,8-31,21.6l-0.4,1.3h60.3l-0.1-1.2
		C509.5,177.8,499,169.8,482.4,169.8z"/>
	<path class="st2" d="M630.1,256.6v-54.9c0-18.1-10.6-29.7-26.9-29.7c-16.2,0-28.4,13.3-28.4,31v53.6h-24.1V151.5h21.7l1.9,15.7
		l1.6-1.6c11.1-10.9,21.7-15.7,34.4-15.7c26.5,0,44.3,20.7,44.3,51.4v55.1L630.1,256.6L630.1,256.6z"/>
	<path class="st2" d="M718.2,257.9c-10.7,0-19.6-3.3-25.6-9.5c-6.4-6.6-9.6-16.2-9.6-28.5v-47.3h-20v-20.7h20v-25.8l24.3-4.4V152
		h29.5v20.7h-29.7V220c0,10.2,5.6,16.2,15,16.2c3.7,0,8.2-1.1,12.1-2.8l6.7,20.5c-7.1,2.7-13.1,3.9-20.6,4.1
		C719.6,257.9,718.9,257.9,718.2,257.9z"/>
	<path class="st2" d="M828.7,256.3V151.7h24.3v104.6H828.7z M840.9,134.6c-7,0-14.5-4.5-14.5-14.4s7.5-14.4,14.5-14.4
		c7,0,14.5,4.5,14.5,14.4C855.5,130.1,847.9,134.6,840.9,134.6z"/>
	<path class="st2" d="M875.8,301.3V151.7H900v17.1l2-2.8c8.5-12.3,23.1-16.7,33.9-16.7c31.2,0,53.8,23.1,53.8,54.9
		c0,32.8-21.3,54.9-53,54.9c-12.1,0-27.7-3.9-34.7-14.7l-2-3v59.8L875.8,301.3L875.8,301.3z M933.9,172.8
		c-18.5,0-31.5,12.9-31.5,31.5c0,17.9,13.5,31.5,31.5,31.5c17.9,0,31.5-13.5,31.5-31.5C965.4,185.7,952.4,172.8,933.9,172.8z"/>
	<path class="st2" d="M755.3,257.2V152.1h24.1v8.4l1.8-1.6c6.4-5.7,14.9-8.6,25.3-8.6h4l0.5,0.1h0.1v25l-4.9-0.3
		c-0.6,0-1.1-0.1-1.7-0.1c-6.8,0-12.6,2-17.6,5.9c-5.2,4.1-7.8,11.1-7.8,20.7v55.5L755.3,257.2L755.3,257.2z"/>
</g>
</svg>
